<svg width="64" height="64" viewBox="0 0 64 64" fill="none" xmlns="http://www.w3.org/2000/svg">
                        <circle cx="32" cy="32" r="30" fill="#9b59b6" opacity="0.1"/>
                        <path d="M32 8C20 8 10 18 10 30v4c0 12 10 22 22 22s22-10 22-22v-4c0-12-10-22-22-22z" fill="#9b59b6" opacity="0.2"/>
                        <path d="M32 8C20 8 10 18 10 30v4c0 12 10 22 22 22s22-10 22-22v-4c0-12-10-22-22-22z" stroke="#9b59b6" stroke-width="2" fill="none"/>
                        <path d="M28 32l4 4 8-8" stroke="#9b59b6" stroke-width="2" stroke-linecap="round" stroke-linejoin="round" fill="none"/>
                    </svg>